<svg xmlns="http://www.w3.org/2000/svg" viewBox="0 0 32 32" width="32" height="32">
  <defs>
    <linearGradient id="wizard-gradient" x1="0%" y1="0%" x2="100%" y2="100%">
      <stop offset="0%" style="stop-color:#4F46E5;stop-opacity:1" />
      <stop offset="100%" style="stop-color:#312E81;stop-opacity:1" />
    </linearGradient>
  </defs>
  
  <!-- Wizard hat main -->
  <path d="M16 3 L8 24 L24 24 Z" 
        fill="url(#wizard-gradient)" 
        stroke="#1E1B4B" 
        stroke-width="0.5"/>
  
  <!-- Hat brim -->
  <ellipse cx="16" cy="24" rx="8" ry="2" fill="#1E1B4B"/>
  
  <!-- Stars -->
  <g fill="#F59E0B">
    <!-- Star 1 -->
    <path d="M13 10 L13.5 11.5 L15 11.5 L13.8 12.4 L14.3 13.9 L13 13 L11.7 13.9 L12.2 12.4 L11 11.5 L12.5 11.5 Z"/>
    <!-- Star 2 -->
    <path d="M19 14 L19.5 15.5 L21 15.5 L19.8 16.4 L20.3 17.9 L19 17 L17.7 17.9 L18.2 16.4 L17 15.5 L18.5 15.5 Z"/>
    <!-- Star 3 -->
    <path d="M15 18 L15.3 19 L16.3 19 L15.6 19.6 L15.9 20.6 L15 20.1 L14.1 20.6 L14.4 19.6 L13.7 19 L14.7 19 Z"/>
  </g>
  
  <!-- Moon crescent -->
  <path d="M20 8 C21 9 21 12 20 13 C22 12 22 9 20 8 Z" fill="#F59E0B"/>
  
  <!-- Sparkle effect -->
  <circle cx="25" cy="6" r="0.5" fill="#F59E0B" opacity="0.8"/>
  <circle cx="27" cy="4" r="0.3" fill="#F59E0B" opacity="0.6"/>
  <circle cx="6" cy="8" r="0.4" fill="#F59E0B" opacity="0.7"/>
</svg>