<svg xmlns="http://www.w3.org/2000/svg" viewBox="0 0 32 32" width="32" height="32">
  <defs>
    <linearGradient id="brain-gradient" x1="0%" y1="0%" x2="100%" y2="100%">
      <stop offset="0%" style="stop-color:hsl(262, 83%, 58%);stop-opacity:1" />
      <stop offset="100%" style="stop-color:hsl(330, 81%, 60%);stop-opacity:1" />
    </linearGradient>
  </defs>
  
  <!-- Brain shape -->
  <path d="M16 2c-2.5 0-4.5 1.2-5.8 3.2-1.8 0-3.2 1.4-3.2 3.2 0 0.8 0.3 1.5 0.7 2.1-0.7 1.1-1.2 2.4-1.2 3.8 0 2 0.8 3.8 2.1 5.1-0.3 0.6-0.4 1.3-0.4 2 0 2.2 1.8 4 4 4h0.8c1.4 1.2 3.2 2 5.2 2s3.8-0.8 5.2-2h0.8c2.2 0 4-1.8 4-4 0-0.7-0.2-1.4-0.4-2 1.3-1.3 2.1-3.1 2.1-5.1 0-1.4-0.5-2.7-1.2-3.8 0.4-0.6 0.7-1.3 0.7-2.1 0-1.8-1.4-3.2-3.2-3.2C20.5 3.2 18.5 2 16 2z" 
        fill="url(#brain-gradient)" 
        stroke="rgba(255,255,255,0.2)" 
        stroke-width="0.5"/>
  
  <!-- Brain folds/details -->
  <path d="M12 12c0.5-0.5 1.5-0.5 2 0s0.5 1.5 0 2" 
        fill="none" 
        stroke="rgba(255,255,255,0.3)" 
        stroke-width="1" 
        stroke-linecap="round"/>
  
  <path d="M18 11c0.5-0.5 1.5-0.5 2 0s0.5 1.5 0 2" 
        fill="none" 
        stroke="rgba(255,255,255,0.3)" 
        stroke-width="1" 
        stroke-linecap="round"/>
  
  <path d="M14 16c0.8-0.3 1.6-0.3 2.4 0" 
        fill="none" 
        stroke="rgba(255,255,255,0.3)" 
        stroke-width="1" 
        stroke-linecap="round"/>
  
  <!-- Thinking dots -->
  <circle cx="20" cy="8" r="1" fill="rgba(255,255,255,0.6)"/>
  <circle cx="22" cy="6" r="0.8" fill="rgba(255,255,255,0.4)"/>
  <circle cx="24" cy="4" r="0.6" fill="rgba(255,255,255,0.3)"/>
</svg>